<?xml version="1.0" encoding="UTF-8"?>
<svg version="1.1" viewBox="0 0 256 256" xmlns="http://www.w3.org/2000/svg" xmlns:xlink="http://www.w3.org/1999/xlink">
    <!--Generated by IJSVG (https://github.com/iconjar/IJSVG)-->
    <g fill="#B76C6C">
        <path d="M68.179,157.663c-24.903,5.605 -50.691,-14.398 -57.487,-44.59c-6.796,-30.192 -0.861,-98.398 24.042,-104.003c24.903,-5.605 59.489,53.481 66.284,83.673c6.795,30.192 -7.936,59.314 -32.839,64.92Z"></path>
        <path d="M184.658,240.172c-24.647,-6.641 -38.149,-36.353 -30.098,-66.235c8.051,-29.882 45.074,-87.471 69.721,-80.831c24.647,6.641 27.728,75.035 19.677,104.917c-8.051,29.882 -34.653,48.79 -59.3,42.149Z"></path>
    </g>
    <path fill="#FFBB98" d="M214.037,17.469c-42.535,-26.232 -96.126,17.423 -82.53,64.571c2.983,10.346 11.465,18.323 22.956,16.418c9.67,-1.603 19.419,-12.547 16.418,-22.956c-1.939,-6.725 -3.281,-12.233 0.908,-18.341c4.321,-6.301 12.175,-8.943 19.516,-7.61c5.765,1.046 10.113,5.106 16.448,4.725c9.659,-0.58 16.364,-9.391 16.555,-18.685c0.153,-7.516 -3.945,-14.22 -10.271,-18.122Z"></path>
    <path d="M10.892,213.472c18.067,46.594 87.144,44.154 104.776,-1.637c3.869,-10.049 1.925,-21.528 -8.385,-26.948c-8.676,-4.561 -23.056,-1.724 -26.949,8.385c-2.515,6.531 -4.771,11.733 -11.798,14.072c-7.249,2.414 -15.104,-0.223 -20.152,-5.718c-3.964,-4.315 -4.979,-10.177 -10.258,-13.698c-8.05,-5.37 -18.714,-2.396 -24.479,4.898c-4.66,5.897 -5.442,13.716 -2.755,20.646Z" fill="#FFBB98"></path>
    <path fill="#965959" d="M68.183,157.666c-5.36,1.2 -10.76,1.22 -16,0.21c0.33,-0.07 0.67,-0.14 1,-0.21c24.9,-5.61 39.63,-34.73 32.84,-64.92c-5.81,-25.83 -31.95,-72.77 -54.97,-82.33c1.18,-0.61 2.4,-1.06 3.68,-1.35c24.9,-5.6 59.49,53.48 66.29,83.68c6.79,30.19 -7.94,59.31 -32.84,64.92Z"></path>
    <path d="M67.183,157.876c-24.6,4.85 -49.79,-15.01 -56.49,-44.8c-6.8,-30.2 -0.86,-98.4 24.04,-104.01c3.61,-0.81 7.42,-0.27 11.32,1.35c-21.8,11.15 -26.81,74.01 -20.36,102.66c5.33,23.69 22.36,41.11 41.49,44.8Z" fill="#C98585"></path>
    <path fill="#965959" d="M243.963,198.026c-7.78,28.83 -32.82,47.45 -56.72,42.76c18.63,-3.55 35.57,-19.97 41.72,-42.76c7.72,-28.65 5.21,-92.67 -16.72,-103.78c4.21,-1.67 8.27,-2.16 12.04,-1.14c24.65,6.64 27.73,75.03 19.68,104.92Z"></path>
    <path d="M169.563,173.936c-8.05,29.88 5.45,59.6 30.09,66.24c0.86,0.23 1.73,0.43 2.59,0.61c-5.79,1.1 -11.75,0.96 -17.59,-0.61c-24.64,-6.64 -38.14,-36.36 -30.09,-66.24c8.05,-29.88 45.07,-87.47 69.72,-80.83c1.02,0.28 2.01,0.66 2.96,1.14c-23.26,9.19 -50.86,54.39 -57.68,79.69Z" fill="#C98585"></path>
    <path fill="#FFAA80" d="M115.673,211.836c-10.03,26.04 -36.69,38.06 -61.15,35.01c19.6,-2.41 38.16,-14.26 46.15,-35.01c3.86,-10.05 1.92,-21.53 -8.39,-26.95c-0.59,-0.31 -1.2,-0.59 -1.84,-0.81c5.53,-1.97 12.05,-1.7 16.84,0.81c10.31,5.42 12.25,16.9 8.39,26.95Z"></path>
    <path d="M69.523,246.846c-23.62,2.92 -48.75,-7.9 -58.63,-33.37c-2.69,-6.93 -1.91,-14.75 2.76,-20.65c5.34,-6.76 14.88,-9.81 22.66,-5.95c-2.95,1.32 -5.61,3.36 -7.66,5.95c-4.67,5.9 -5.45,13.72 -2.76,20.65c7.8,20.1 25.07,31.07 43.63,33.37Z" fill="#FFCAA6"></path>
    <path fill="#FFAA80" d="M224.303,35.586c-0.19,9.3 -6.89,18.11 -16.55,18.69c-3.16,0.19 -5.83,-0.73 -8.43,-1.83c6.01,-3.14 9.84,-9.86 9.98,-16.86c0.16,-7.51 -3.94,-14.22 -10.27,-18.12c-6.46,-3.98 -13.17,-6.35 -19.86,-7.33c11.42,-1.68 23.53,0.34 34.86,7.33c6.33,3.9 10.43,10.61 10.27,18.12Z"></path>
    <path d="M146.503,82.036c1.95,6.75 6.24,12.5 12.18,15.14c-1.38,0.61 -2.8,1.05 -4.22,1.28c-11.49,1.91 -19.97,-6.07 -22.96,-16.42c-11.53,-39.98 25.28,-77.46 62.67,-71.9c-31.45,4.61 -57.64,37.32 -47.67,71.9Z" fill="#FFCAA6"></path>
    <path fill="#5F266D" d="M59.733,162.606c32.051,0 53.373,-34.395 45.19,-70.74c-3.66,-16.24 -14.5,-39.02 -26.99,-56.69c-11.1,-15.72 -27.77,-33.68 -44.08,-30.01c-16.31,3.67 -23.67,27.04 -26.97,46c-3.71,21.32 -3.75,46.55 -0.09,62.78c6.44,28.63 29.06,48.66 52.94,48.66Zm-44.97,-110.07c3.03,-17.41 8.11,-29.9 14.39,-35.86c5.43,13.61 21.43,57.35 18.01,92.89c-0.5,5.238 7.443,6.112 7.96,0.76c3.7,-38.45 -13.48,-84.26 -18.87,-97.47c12.446,-2.208 27.892,16.662 35.15,26.93c11.75,16.63 22.32,38.77 25.71,53.83c5.401,23.947 -3.649,45.114 -17.55,54.74c10.163,-30.868 7.077,-66.155 -12.78,-96.4c-2.941,-4.435 -9.572,0.007 -6.69,4.39c29.9,45.54 11.91,90.44 9.03,96.95c-3.612,1.023 -7.525,1.493 -11.64,1.24c-4.4,-6.43 -33.53,-51.62 -25.16,-107.15c0.789,-5.216 -7.117,-6.425 -7.91,-1.19c-7.39,49.02 12.22,89.4 22.01,105.9c-14.87,-5.68 -27.47,-20.56 -31.83,-39.9c-3.39,-15.07 -3.32,-39.6 0.17,-59.66Z"></path>
    <g fill="#5F266D">
        <path d="M250.343,136.326c-2.5,-19.08 -8.88,-42.73 -25.02,-47.08c-16.14,-4.35 -33.54,12.9 -45.29,28.14c-13.22,17.13 -25.01,39.44 -29.34,55.51c-8.451,31.411 5.572,63.75 32.92,71.14c27.261,7.334 55.688,-13.393 64.21,-44.97c4.33,-16.07 5.34,-41.28 2.52,-62.74Zm-10.25,60.66c-6.388,23.713 -24.265,38.229 -41.02,40.25c23.326,-22.57 37.076,-55.146 33.58,-91.25c-0.502,-5.257 -8.463,-4.499 -7.96,0.77c5.24,54.16 -31.49,85.51 -37.15,89.98c-3.313,-0.641 -7.276,-2.102 -10.9,-4.32c-0.9,-7.76 -5.61,-61.3 27.65,-106.52c3.137,-4.262 -3.31,-9.017 -6.44,-4.74c-29.37,39.93 -30.83,84.78 -29.85,103.95c-10.116,-11.546 -14.908,-30.334 -9.58,-50.13c4.02,-14.91 15.51,-36.58 27.94,-52.71c10.8,-14 21.11,-22.68 29.44,-25.04c-1.54,14.58 -7.78,60.77 -27.34,90.59c-2.934,4.485 3.816,8.757 6.69,4.39c21.19,-32.31 27.32,-80.84 28.71,-95.04c8.84,2.94 15.57,17.52 18.55,40.2c2.65,20.19 1.7,44.71 -2.32,59.62Z"></path>
        <path d="M174.723,74.396c-9.519,-33.053 30.137,-15.944 33.27,-16.13c20.768,-1.249 29.107,-31.264 8.14,-44.2c-45.759,-28.232 -103.04,18.542 -88.47,69.08c10.253,35.537 54.287,16.332 47.06,-8.75Zm-39.37,6.54c-12.566,-43.589 37.121,-84.393 76.58,-60.06c14.417,8.859 8.37,28.642 -4.42,29.41c-1,0.061 -53.46,-18.759 -40.48,26.32c4.33,15.037 -24.377,29.667 -31.68,4.33Z"></path>
        <path d="M76.603,191.836c-6.911,17.904 -21.462,14.855 -28.58,2.07c-15.507,-27.577 -51.203,-5.695 -40.86,21.01c19.472,50.212 93.369,47.351 112.24,-1.64c13.228,-34.374 -33.383,-45.981 -42.8,-21.44Zm35.33,18.56c-16.37,42.51 -80.63,44.691 -97.31,1.63c-6.8,-17.508 15.793,-33.141 26.42,-14.21c10.138,18.181 33.475,21.763 43.02,-3.11c5.658,-14.587 37.365,-8.95 27.87,15.69Z"></path>
        <path d="M90.913,208.176c-0.47,1.23 -0.99,2.42 -1.54,3.53c-2.395,4.791 4.881,8.25 7.17,3.54c0.67,-1.33 1.28,-2.75 1.84,-4.21c1.895,-4.943 -5.582,-7.807 -7.47,-2.86Z"></path>
        <path d="M81.283,221.876c-5.064,3.787 -11.658,4.922 -15.74,4.24c-5.168,-0.957 -6.677,6.852 -1.47,7.86c4.347,0.816 13.719,0.512 22.01,-5.7c4.261,-3.22 -0.573,-9.596 -4.8,-6.4Z"></path>
    </g>
</svg>